<svg width="96" height="96" xmlns="http://www.w3.org/2000/svg" xmlns:xlink="http://www.w3.org/1999/xlink" xml:space="preserve" overflow="hidden"><defs><clipPath id="clip0"><rect x="240" y="240" width="96" height="96"/></clipPath></defs><g clip-path="url(#clip0)" transform="translate(-240 -240)"><path d="M287 252.5C283.3 250.7 279.5 249.5 275.7 249 286.7 259.9 290 277 282.7 291.7 275.5 306.4 259.7 314 244.5 311.9 247.2 314.6 250.5 317 254.1 318.8 272.4 327.9 294.6 320.4 303.6 302.1 312.6 283.8 305.3 261.7 287 252.5Z" fill="#FFD94C"/><path d="M326.9 294.5C326.7 294.2 326.7 293.8 326.9 293.5L328.8 290.7C329 290.3 329 289.9 328.8 289.6 328.6 289.3 328.1 289.1 327.8 289.2L324.7 290C324.3 290.1 323.9 289.9 323.7 289.6L321.8 286.8C321.5 286.4 321.1 286.3 320.7 286.4 320.3 286.5 320 286.9 320 287.3L319.8 290.7C319.8 291.1 319.5 291.4 319.1 291.6L316 292.3C315.6 292.4 315.3 292.7 315.3 293.2 315.3 293.6 315.5 294 315.9 294.1L317.2 294.8 318.9 295.7C319 295.8 319.2 295.9 319.3 296.1 319.4 296.3 319.4 296.4 319.4 296.6L319.4 300C319.4 300.4 319.6 300.8 320 300.9 320.4 301 320.8 300.9 321.1 300.6L323.3 297.9C323.6 297.6 324 297.5 324.4 297.6L327.7 298.8C328.1 298.9 328.5 298.8 328.8 298.5 329.1 298.2 329.1 297.7 328.9 297.4L326.9 294.5Z" fill="#FFD94C"/><path d="M317.4 269.6 320.1 264.7C320.4 264.1 321 263.8 321.7 263.9L327.2 264.8C327.9 264.9 328.5 264.6 328.8 264 329.1 263.4 329 262.6 328.6 262.2L324.8 258.1C324.4 257.7 324.3 257 324.5 256.4L326.6 251.3C326.8 250.7 326.7 250 326.3 249.6 325.9 249.2 325.1 249 324.6 249.3L319.9 251.6C319.3 251.9 318.6 251.7 318.2 251.3L314.4 247.5C313.9 247 313.1 246.9 312.5 247.1 311.9 247.4 311.6 248.1 311.6 248.7L312.3 254C312.4 254.7 312.1 255.3 311.5 255.6L306.8 257.9C306.2 258.2 305.9 258.8 306 259.5 306.1 260.1 306.6 260.7 307.2 260.8L309.5 261.5 312.5 262.4C312.8 262.5 313 262.7 313.3 262.9 313.5 263.1 313.6 263.4 313.7 263.7L314.6 269.2C314.7 269.9 315.2 270.4 315.9 270.5 316.6 270.6 317.1 270.2 317.4 269.6Z" fill="#FFD94C"/></g></svg>