<svg width="96" height="96" xmlns="http://www.w3.org/2000/svg" xmlns:xlink="http://www.w3.org/1999/xlink" xml:space="preserve" overflow="hidden"><defs><clipPath id="clip0"><rect x="97" y="240" width="96" height="96"/></clipPath></defs><g clip-path="url(#clip0)" transform="translate(-97 -240)"><path d="M101 285 119 285 119 291 101 291Z" fill="#FFD94C"/><path d="M171 285 189 285 189 291 171 291Z" fill="#FFD94C"/><path d="M167 288C167 300.15 157.15 310 145 310 132.85 310 123 300.15 123 288 123 275.85 132.85 266 145 266 157.15 266 167 275.85 167 288Z" fill="#FFD94C"/><path d="M142 314 148 314 148 332 142 332Z" fill="#FFD94C"/><path d="M142 244 148 244 148 262 142 262Z" fill="#FFD94C"/><path d="M128.687 308.454 115.96 321.181 111.717 316.939 124.445 304.211Z" fill="#FFD94C"/><path d="M178.283 259.059 165.555 271.786 161.312 267.544 174.04 254.816Z" fill="#FFD94C"/><path d="M128.785 267.445 124.542 271.688 111.815 258.96 116.057 254.718Z" fill="#FFD94C"/><path d="M178.184 317.038 173.941 321.281 161.213 308.553 165.456 304.31Z" fill="#FFD94C"/></g></svg>